<svg width="423" height="49" viewBox="0 0 423 49" fill="none" xmlns="http://www.w3.org/2000/svg">
<rect x="0.644531" y="1.30835" width="421" height="47" rx="9.5" fill="white"/>
<rect x="0.644531" y="1.30835" width="421" height="47" rx="9.5" stroke="#D1D1D1"/>
<path d="M22.9059 31.8083V17.2629H31.6843V18.8254H24.6673V23.7402H31.2298V25.3027H24.6673V30.2458H31.7979V31.8083H22.9059ZM34.6317 31.8083V20.8993H36.2511V22.6038H36.3931C36.6204 22.0214 36.9873 21.5692 37.494 21.2473C38.0006 20.9206 38.609 20.7572 39.3192 20.7572C40.0389 20.7572 40.6379 20.9206 41.1161 21.2473C41.5991 21.5692 41.9755 22.0214 42.2454 22.6038H42.359C42.6384 22.0404 43.0574 21.5929 43.6161 21.2615C44.1748 20.9253 44.8448 20.7572 45.6261 20.7572C46.6014 20.7572 47.3993 21.0626 48.0195 21.6734C48.6398 22.2795 48.9499 23.2241 48.9499 24.5072V31.8083H47.2738V24.5072C47.2738 23.7023 47.0536 23.127 46.6133 22.7814C46.1729 22.4357 45.6545 22.2629 45.0579 22.2629C44.2908 22.2629 43.6966 22.4949 43.2752 22.9589C42.8538 23.4182 42.6431 24.0006 42.6431 24.7061V31.8083H40.9386V24.3368C40.9386 23.7165 40.7373 23.217 40.3349 22.8382C39.9324 22.4547 39.4139 22.2629 38.7795 22.2629C38.3439 22.2629 37.9367 22.3789 37.5579 22.6109C37.1838 22.8429 36.8808 23.1649 36.6488 23.5768C36.4215 23.984 36.3079 24.4551 36.3079 24.9902V31.8083H34.6317ZM55.2248 32.064C54.5335 32.064 53.9061 31.9338 53.3427 31.6734C52.7792 31.4083 52.3318 31.0271 52.0004 30.5299C51.6689 30.028 51.5032 29.422 51.5032 28.7118C51.5032 28.0868 51.6263 27.5801 51.8725 27.1919C52.1187 26.7989 52.4478 26.4911 52.8597 26.2686C53.2717 26.046 53.7262 25.8803 54.2234 25.7714C54.7253 25.6578 55.2295 25.5678 55.7362 25.5015C56.399 25.4163 56.9364 25.3524 57.3484 25.3098C57.765 25.2624 58.0681 25.1843 58.2575 25.0754C58.4516 24.9665 58.5487 24.7771 58.5487 24.5072V24.4504C58.5487 23.7496 58.3569 23.2051 57.9734 22.8169C57.5946 22.4286 57.0193 22.2345 56.2475 22.2345C55.4473 22.2345 54.82 22.4097 54.3654 22.7601C53.9109 23.1104 53.5913 23.4845 53.4066 23.8822L51.8157 23.314C52.0998 22.6512 52.4786 22.1351 52.9521 21.7657C53.4303 21.3917 53.9511 21.1313 54.5146 20.9845C55.0827 20.833 55.6415 20.7572 56.1907 20.7572C56.5411 20.7572 56.9435 20.7998 57.3981 20.8851C57.8574 20.9655 58.3001 21.1336 58.7262 21.3893C59.1571 21.645 59.5146 22.0309 59.7987 22.547C60.0827 23.0631 60.2248 23.7544 60.2248 24.6208V31.8083H58.5487V30.3311H58.4634C58.3498 30.5678 58.1604 30.8211 57.8952 31.091C57.6301 31.3609 57.2773 31.5905 56.837 31.7799C56.3967 31.9693 55.8593 32.064 55.2248 32.064ZM55.4805 30.5583C56.1433 30.5583 56.7021 30.4281 57.1566 30.1677C57.6159 29.9073 57.9615 29.5711 58.1935 29.1592C58.4303 28.7473 58.5487 28.314 58.5487 27.8595V26.3254C58.4776 26.4106 58.3214 26.4887 58.0799 26.5598C57.8432 26.6261 57.5685 26.6852 57.256 26.7373C56.9483 26.7847 56.6476 26.8273 56.354 26.8652C56.0652 26.8983 55.8308 26.9267 55.6509 26.9504C55.2153 27.0072 54.8081 27.0995 54.4293 27.2274C54.0553 27.3505 53.7522 27.5375 53.5202 27.7885C53.293 28.0347 53.1793 28.3708 53.1793 28.797C53.1793 29.3794 53.3948 29.8197 53.8256 30.118C54.2612 30.4116 54.8129 30.5583 55.4805 30.5583ZM63.2841 31.8083V20.8993H64.9602V31.8083H63.2841ZM64.1364 19.0811C63.8097 19.0811 63.5279 18.9698 63.2912 18.7473C63.0592 18.5247 62.9432 18.2572 62.9432 17.9447C62.9432 17.6322 63.0592 17.3647 63.2912 17.1422C63.5279 16.9196 63.8097 16.8083 64.1364 16.8083C64.4631 16.8083 64.7424 16.9196 64.9744 17.1422C65.2112 17.3647 65.3295 17.6322 65.3295 17.9447C65.3295 18.2572 65.2112 18.5247 64.9744 18.7473C64.7424 18.9698 64.4631 19.0811 64.1364 19.0811ZM69.7063 17.2629V31.8083H68.0302V17.2629H69.7063Z" fill="#D1D1D1"/>
<mask id="mask0_310_1284" style="mask-type:alpha" maskUnits="userSpaceOnUse" x="377" y="12" width="25" height="25">
<rect x="377.145" y="12.8083" width="24" height="24" fill="#D9D9D9"/>
</mask>
<g mask="url(#mask0_310_1284)">
<path d="M381.145 32.8083C380.595 32.8083 380.124 32.6125 379.732 32.2208C379.34 31.8292 379.145 31.3583 379.145 30.8083V18.8083C379.145 18.2583 379.34 17.7875 379.732 17.3958C380.124 17.0042 380.595 16.8083 381.145 16.8083H397.145C397.695 16.8083 398.165 17.0042 398.557 17.3958C398.949 17.7875 399.145 18.2583 399.145 18.8083V30.8083C399.145 31.3583 398.949 31.8292 398.557 32.2208C398.165 32.6125 397.695 32.8083 397.145 32.8083H381.145ZM397.145 20.8083L389.67 25.4833C389.586 25.5333 389.499 25.5709 389.407 25.5958C389.315 25.6208 389.228 25.6333 389.145 25.6333C389.061 25.6333 388.974 25.6208 388.882 25.5958C388.79 25.5709 388.703 25.5333 388.62 25.4833L381.145 20.8083V30.8083H397.145V20.8083ZM389.145 23.8083L397.145 18.8083H381.145L389.145 23.8083ZM381.145 21.0583V19.5833V19.6083V19.5958V21.0583Z" fill="#A8A8A8"/>
</g>
</svg>
